<?xml version="1.0" encoding="UTF-8" standalone="no"?>
<!DOCTYPE svg PUBLIC "-//W3C//DTD SVG 1.1//EN"
 "http://www.w3.org/Graphics/SVG/1.1/DTD/svg11.dtd">
<!-- Generated by graphviz version 2.36.0 (20140111.2315)
 -->
<!-- Title: UML Pages: 1 -->
<svg width="1513pt" height="909pt"
 viewBox="0.00 0.00 1513.36 909.00" xmlns="http://www.w3.org/2000/svg" xmlns:xlink="http://www.w3.org/1999/xlink">
<g id="graph0" class="graph" transform="scale(1 1) rotate(0) translate(4 905)">
<title>UML</title>
<polygon fill="white" stroke="none" points="-4,4 -4,-905 1509.36,-905 1509.36,4 -4,4"/>
<g id="clust1" class="cluster"><title>cluster_sample_proto</title>
<g id="a_clust1"><a xlink:href="https://github.com/bmeg/bmeg-schemas/blob/master/bmeg/gaea/schema/sample.proto" xlink:title="sample_proto">
<path fill="lightgrey" stroke="lightgrey" d="M48.3567,-8C48.3567,-8 1485.36,-8 1485.36,-8 1491.36,-8 1497.36,-14 1497.36,-20 1497.36,-20 1497.36,-881 1497.36,-881 1497.36,-887 1491.36,-893 1485.36,-893 1485.36,-893 48.3567,-893 48.3567,-893 42.3567,-893 36.3567,-887 36.3567,-881 36.3567,-881 36.3567,-20 36.3567,-20 36.3567,-14 42.3567,-8 48.3567,-8"/>
<text text-anchor="middle" x="766.857" y="-877.8" font-family="Times,serif" font-size="14.00">sample_proto</text>
</a>
</g>
</g>
<!-- Position -->
<g id="node1" class="node"><title>Position</title>
<polygon fill="#002060" stroke="none" points="632.857,-152 632.857,-264 775.857,-264 775.857,-152 632.857,-152"/>
<polygon fill="#79a6ff" stroke="none" points="633.357,-227 633.357,-264 776.357,-264 776.357,-227 633.357,-227"/>
<polygon fill="none" stroke="#002060" stroke-width="3" points="634.857,-228.5 634.857,-262.5 774.857,-262.5 774.857,-228.5 634.857,-228.5"/>
<text text-anchor="start" x="672.857" y="-240.5" font-family="Times,serif" font-size="20.00" fill="white">Position</text>
<polygon fill="none" stroke="#002060" points="633.357,-202 633.357,-227 724.357,-227 724.357,-202 633.357,-202"/>
<text text-anchor="start" x="638.357" y="-210.8" font-family="Times,serif" font-size="14.00" fill="white">&#45; name</text>
<polygon fill="none" stroke="#002060" points="724.357,-202 724.357,-227 776.357,-227 776.357,-202 724.357,-202"/>
<text text-anchor="start" x="729.357" y="-210.8" font-family="Times,serif" font-size="14.00" fill="white">&#45; end</text>
<polygon fill="none" stroke="#002060" points="633.357,-177 633.357,-202 724.357,-202 724.357,-177 633.357,-177"/>
<text text-anchor="start" x="638.357" y="-185.8" font-family="Times,serif" font-size="14.00" fill="white">&#45; chromosome</text>
<polygon fill="none" stroke="#002060" points="724.357,-177 724.357,-202 776.357,-202 776.357,-177 724.357,-177"/>
<text text-anchor="start" x="729.357" y="-185.8" font-family="Times,serif" font-size="14.00" fill="white">&#45; strand</text>
<polygon fill="none" stroke="#002060" points="633.357,-152 633.357,-177 724.357,-177 724.357,-152 633.357,-152"/>
<text text-anchor="start" x="638.357" y="-160.8" font-family="Times,serif" font-size="14.00" fill="white">&#45; start</text>
</g>
<!-- Drug -->
<g id="node2" class="node"><title>Drug</title>
<polygon fill="#002060" stroke="none" points="1073.36,-370.5 1073.36,-457.5 1189.36,-457.5 1189.36,-370.5 1073.36,-370.5"/>
<polygon fill="#79a6ff" stroke="none" points="1073.36,-420 1073.36,-457 1189.36,-457 1189.36,-420 1073.36,-420"/>
<polygon fill="none" stroke="#002060" stroke-width="3" points="1074.86,-421.5 1074.86,-455.5 1187.86,-455.5 1187.86,-421.5 1074.86,-421.5"/>
<text text-anchor="start" x="1110.86" y="-433.5" font-family="Times,serif" font-size="20.00" fill="white">Drug</text>
<polygon fill="none" stroke="#002060" points="1073.36,-395 1073.36,-420 1148.36,-420 1148.36,-395 1073.36,-395"/>
<text text-anchor="start" x="1078.36" y="-403.8" font-family="Times,serif" font-size="14.00" fill="white">&#45; name</text>
<polygon fill="none" stroke="#002060" points="1148.36,-395 1148.36,-420 1189.36,-420 1189.36,-395 1148.36,-395"/>
<text text-anchor="start" x="1153.36" y="-403.8" font-family="Times,serif" font-size="14.00" fill="white">&#45; info</text>
<polygon fill="none" stroke="#002060" points="1073.36,-370 1073.36,-395 1148.36,-395 1148.36,-370 1073.36,-370"/>
<text text-anchor="start" x="1078.36" y="-378.8" font-family="Times,serif" font-size="14.00" fill="white">&#45; synonyms</text>
</g>
<!-- OntologyTerm -->
<g id="node3" class="node"><title>OntologyTerm</title>
<polygon fill="#002060" stroke="none" points="1348.86,-370.5 1348.86,-457.5 1481.86,-457.5 1481.86,-370.5 1348.86,-370.5"/>
<polygon fill="#79a6ff" stroke="none" points="1349.36,-420 1349.36,-457 1482.36,-457 1482.36,-420 1349.36,-420"/>
<polygon fill="none" stroke="#002060" stroke-width="3" points="1350.86,-421.5 1350.86,-455.5 1480.86,-455.5 1480.86,-421.5 1350.86,-421.5"/>
<text text-anchor="start" x="1356.86" y="-433.5" font-family="Times,serif" font-size="20.00" fill="white">OntologyTerm</text>
<polygon fill="none" stroke="#002060" points="1349.36,-395 1349.36,-420 1413.36,-420 1413.36,-395 1349.36,-395"/>
<text text-anchor="start" x="1354.36" y="-403.8" font-family="Times,serif" font-size="14.00" fill="white">&#45; name</text>
<polygon fill="none" stroke="#002060" points="1413.36,-395 1413.36,-420 1482.36,-420 1482.36,-395 1413.36,-395"/>
<text text-anchor="start" x="1418.36" y="-403.8" font-family="Times,serif" font-size="14.00" fill="white">&#45; source</text>
<polygon fill="none" stroke="#002060" points="1349.36,-370 1349.36,-395 1413.36,-395 1413.36,-370 1349.36,-370"/>
<text text-anchor="start" x="1354.36" y="-378.8" font-family="Times,serif" font-size="14.00" fill="white">&#45; term</text>
</g>
<!-- Genotype -->
<g id="node4" class="node"><title>Genotype</title>
<polygon fill="#002060" stroke="none" points="115.357,-589 115.357,-701 475.357,-701 475.357,-589 115.357,-589"/>
<polygon fill="#79a6ff" stroke="none" points="115.357,-664 115.357,-701 475.357,-701 475.357,-664 115.357,-664"/>
<polygon fill="none" stroke="#002060" stroke-width="3" points="116.857,-665.5 116.857,-699.5 473.857,-699.5 473.857,-665.5 116.857,-665.5"/>
<text text-anchor="start" x="256.857" y="-677.5" font-family="Times,serif" font-size="20.00" fill="white">Genotype</text>
<polygon fill="none" stroke="#002060" points="115.357,-639 115.357,-664 303.357,-664 303.357,-639 115.357,-639"/>
<text text-anchor="start" x="120.357" y="-647.8" font-family="Times,serif" font-size="14.00" fill="white">&#45; name</text>
<polygon fill="none" stroke="#002060" points="303.357,-639 303.357,-664 475.357,-664 475.357,-639 303.357,-639"/>
<text text-anchor="start" x="308.357" y="-647.8" font-family="Times,serif" font-size="14.00" fill="white">&#45; isIndividualEdgesIndividual</text>
<polygon fill="none" stroke="#002060" points="115.357,-614 115.357,-639 303.357,-639 303.357,-614 115.357,-614"/>
<text text-anchor="start" x="120.357" y="-622.8" font-family="Times,serif" font-size="14.00" fill="white">&#45; isVariantCallEdgesVariantCall</text>
<polygon fill="none" stroke="#002060" points="303.357,-614 303.357,-639 475.357,-639 475.357,-614 303.357,-614"/>
<text text-anchor="start" x="308.357" y="-622.8" font-family="Times,serif" font-size="14.00" fill="white">&#45; isFeatureEdgesFeature</text>
<polygon fill="none" stroke="#002060" points="115.357,-589 115.357,-614 303.357,-614 303.357,-589 115.357,-589"/>
<text text-anchor="start" x="120.357" y="-597.8" font-family="Times,serif" font-size="14.00" fill="white">&#45; isBiosampleEdgesBiosample</text>
</g>
<!-- Feature -->
<g id="node5" class="node"><title>Feature</title>
<polygon fill="#002060" stroke="none" points="376.857,-383 376.857,-445 495.857,-445 495.857,-383 376.857,-383"/>
<polygon fill="#79a6ff" stroke="none" points="377.357,-408 377.357,-445 496.357,-445 496.357,-408 377.357,-408"/>
<polygon fill="none" stroke="#002060" stroke-width="3" points="378.857,-409.5 378.857,-443.5 494.857,-443.5 494.857,-409.5 378.857,-409.5"/>
<text text-anchor="start" x="406.357" y="-421.5" font-family="Times,serif" font-size="20.00" fill="white">Feature</text>
<polygon fill="none" stroke="#002060" points="377.357,-383 377.357,-408 427.357,-408 427.357,-383 377.357,-383"/>
<text text-anchor="start" x="382.357" y="-391.8" font-family="Times,serif" font-size="14.00" fill="white">&#45; name</text>
<polygon fill="none" stroke="#002060" points="427.357,-383 427.357,-408 496.357,-408 496.357,-383 427.357,-383"/>
<text text-anchor="start" x="432.357" y="-391.8" font-family="Times,serif" font-size="14.00" fill="white">&#45; attributes</text>
</g>
<!-- Genotype&#45;&gt;Feature -->
<g id="edge2" class="edge"><title>Genotype:isFeatureEdgesFeature:w&#45;&gt;Feature:name:w</title>
<path fill="none" stroke="darkgreen" stroke-width="2" stroke-dasharray="5,2" d="M303.357,-625C253.07,-625 338.621,-571.762 354.357,-524 362.283,-499.94 351.028,-419.911 367.216,-399.679"/>
<polygon fill="darkgreen" stroke="darkgreen" stroke-width="2" points="376.357,-395 369.505,-403.562 372.134,-397.723 367.683,-400.001 367.455,-399.556 367.227,-399.111 371.678,-396.833 365.405,-395.551 376.357,-395 376.357,-395"/>
</g>
<!-- Individual -->
<g id="node8" class="node"><title>Individual</title>
<polygon fill="#002060" stroke="none" points="232.357,-20.5 232.357,-107.5 374.357,-107.5 374.357,-20.5 232.357,-20.5"/>
<polygon fill="#79a6ff" stroke="none" points="232.357,-70 232.357,-107 374.357,-107 374.357,-70 232.357,-70"/>
<polygon fill="none" stroke="#002060" stroke-width="3" points="233.857,-71.5 233.857,-105.5 372.857,-105.5 372.857,-71.5 233.857,-71.5"/>
<text text-anchor="start" x="262.857" y="-83.5" font-family="Times,serif" font-size="20.00" fill="white">Individual</text>
<polygon fill="none" stroke="#002060" points="232.357,-45 232.357,-70 287.357,-70 287.357,-45 232.357,-45"/>
<text text-anchor="start" x="237.357" y="-53.8" font-family="Times,serif" font-size="14.00" fill="white">&#45; name</text>
<polygon fill="none" stroke="#002060" points="287.357,-45 287.357,-70 374.357,-70 374.357,-45 287.357,-45"/>
<text text-anchor="start" x="292.357" y="-53.8" font-family="Times,serif" font-size="14.00" fill="white">&#45; observations</text>
<polygon fill="none" stroke="#002060" points="232.357,-20 232.357,-45 287.357,-45 287.357,-20 232.357,-20"/>
<text text-anchor="start" x="237.357" y="-28.8" font-family="Times,serif" font-size="14.00" fill="white">&#45; source</text>
</g>
<!-- Genotype&#45;&gt;Individual -->
<g id="edge13" class="edge"><title>Genotype:isIndividualEdgesIndividual:w&#45;&gt;Individual:name:w</title>
<path fill="none" stroke="darkgreen" stroke-width="2" stroke-dasharray="5,2" d="M303.357,-651C179.523,-651 119.952,-629.652 55.3567,-524 -58.536,-337.718 7.41156,-65.6584 221.071,-57.202"/>
<polygon fill="darkgreen" stroke="darkgreen" stroke-width="2" points="231.357,-57 221.447,-61.6956 226.368,-57.5981 221.368,-57.6964 221.359,-57.1965 221.349,-56.6966 226.348,-56.5983 221.27,-52.6974 231.357,-57 231.357,-57"/>
</g>
<!-- Biosample -->
<g id="node9" class="node"><title>Biosample</title>
<polygon fill="#002060" stroke="none" points="349.357,-152 349.357,-264 573.357,-264 573.357,-152 349.357,-152"/>
<polygon fill="#79a6ff" stroke="none" points="349.357,-227 349.357,-264 573.357,-264 573.357,-227 349.357,-227"/>
<polygon fill="none" stroke="#002060" stroke-width="3" points="350.857,-228.5 350.857,-262.5 571.857,-262.5 571.857,-228.5 350.857,-228.5"/>
<text text-anchor="start" x="418.857" y="-240.5" font-family="Times,serif" font-size="20.00" fill="white">Biosample</text>
<polygon fill="none" stroke="#002060" points="349.357,-202 349.357,-227 412.357,-227 412.357,-202 349.357,-202"/>
<text text-anchor="start" x="354.357" y="-210.8" font-family="Times,serif" font-size="14.00" fill="white">&#45; name</text>
<polygon fill="none" stroke="#002060" points="412.357,-202 412.357,-227 573.357,-227 573.357,-202 412.357,-202"/>
<text text-anchor="start" x="417.357" y="-210.8" font-family="Times,serif" font-size="14.00" fill="white">&#45; sampleType</text>
<polygon fill="none" stroke="#002060" points="349.357,-177 349.357,-202 412.357,-202 412.357,-177 349.357,-177"/>
<text text-anchor="start" x="354.357" y="-185.8" font-family="Times,serif" font-size="14.00" fill="white">&#45; source</text>
<polygon fill="none" stroke="#002060" points="412.357,-177 412.357,-202 573.357,-202 573.357,-177 412.357,-177"/>
<text text-anchor="start" x="417.357" y="-185.8" font-family="Times,serif" font-size="14.00" fill="white">&#45; sampleOfEdgesIndividual</text>
<polygon fill="none" stroke="#002060" points="349.357,-152 349.357,-177 412.357,-177 412.357,-152 349.357,-152"/>
<text text-anchor="start" x="354.357" y="-160.8" font-family="Times,serif" font-size="14.00" fill="white">&#45; barcode</text>
</g>
<!-- Genotype&#45;&gt;Biosample -->
<g id="edge5" class="edge"><title>Genotype:isBiosampleEdgesBiosample:w&#45;&gt;Biosample:name:w</title>
<path fill="none" stroke="darkgreen" stroke-width="2" stroke-dasharray="5,2" d="M114.357,-601C107.232,-601 110.856,-590.524 115.357,-585 180.53,-505.008 275.524,-605.066 339.357,-524 348.861,-511.93 334.821,-274.196 344.046,-224.184"/>
<polygon fill="darkgreen" stroke="darkgreen" stroke-width="2" points="348.357,-215 348.182,-225.964 346.685,-219.739 344.561,-224.265 344.108,-224.053 343.655,-223.84 345.78,-219.314 340.034,-222.141 348.357,-215 348.357,-215"/>
</g>
<!-- VariantCall -->
<g id="node14" class="node"><title>VariantCall</title>
<polygon fill="#002060" stroke="none" points="530.357,-308 530.357,-520 824.357,-520 824.357,-308 530.357,-308"/>
<polygon fill="#79a6ff" stroke="none" points="530.357,-483 530.357,-520 824.357,-520 824.357,-483 530.357,-483"/>
<polygon fill="none" stroke="#002060" stroke-width="3" points="531.857,-484.5 531.857,-518.5 822.857,-518.5 822.857,-484.5 531.857,-484.5"/>
<text text-anchor="start" x="630.857" y="-496.5" font-family="Times,serif" font-size="20.00" fill="white">VariantCall</text>
<polygon fill="none" stroke="#002060" points="530.357,-458 530.357,-483 633.357,-483 633.357,-458 530.357,-458"/>
<text text-anchor="start" x="535.357" y="-466.8" font-family="Times,serif" font-size="14.00" fill="white">&#45; name</text>
<polygon fill="none" stroke="#002060" points="633.357,-458 633.357,-483 824.357,-483 824.357,-458 633.357,-458"/>
<text text-anchor="start" x="638.357" y="-466.8" font-family="Times,serif" font-size="14.00" fill="white">&#45; tumorAllele2</text>
<polygon fill="none" stroke="#002060" points="530.357,-433 530.357,-458 633.357,-458 633.357,-433 530.357,-433"/>
<text text-anchor="start" x="535.357" y="-441.8" font-family="Times,serif" font-size="14.00" fill="white">&#45; source</text>
<polygon fill="none" stroke="#002060" points="633.357,-433 633.357,-458 824.357,-458 824.357,-433 633.357,-433"/>
<text text-anchor="start" x="638.357" y="-441.8" font-family="Times,serif" font-size="14.00" fill="white">&#45; sequencer</text>
<polygon fill="none" stroke="#002060" points="530.357,-408 530.357,-433 633.357,-433 633.357,-408 530.357,-408"/>
<text text-anchor="start" x="535.357" y="-416.8" font-family="Times,serif" font-size="14.00" fill="white">&#45; variantType</text>
<polygon fill="none" stroke="#002060" points="633.357,-408 633.357,-433 824.357,-433 824.357,-408 633.357,-408"/>
<text text-anchor="start" x="638.357" y="-416.8" font-family="Times,serif" font-size="14.00" fill="white">&#45; atPositionEdgesPosition</text>
<polygon fill="none" stroke="#002060" points="530.357,-383 530.357,-408 633.357,-408 633.357,-383 530.357,-383"/>
<text text-anchor="start" x="535.357" y="-391.8" font-family="Times,serif" font-size="14.00" fill="white">&#45; referenceAllele</text>
<polygon fill="none" stroke="#002060" points="633.357,-383 633.357,-408 824.357,-408 824.357,-383 633.357,-383"/>
<text text-anchor="start" x="638.357" y="-391.8" font-family="Times,serif" font-size="14.00" fill="white">&#45; tumorSampleEdgesBiosample</text>
<polygon fill="none" stroke="#002060" points="530.357,-358 530.357,-383 633.357,-383 633.357,-358 530.357,-358"/>
<text text-anchor="start" x="535.357" y="-366.8" font-family="Times,serif" font-size="14.00" fill="white">&#45; normalAllele1</text>
<polygon fill="none" stroke="#002060" points="633.357,-358 633.357,-383 824.357,-383 824.357,-358 633.357,-358"/>
<text text-anchor="start" x="638.357" y="-366.8" font-family="Times,serif" font-size="14.00" fill="white">&#45; normalSampleEdgesBiosample</text>
<polygon fill="none" stroke="#002060" points="530.357,-333 530.357,-358 633.357,-358 633.357,-333 530.357,-333"/>
<text text-anchor="start" x="535.357" y="-341.8" font-family="Times,serif" font-size="14.00" fill="white">&#45; normalAllele2</text>
<polygon fill="none" stroke="#002060" points="633.357,-333 633.357,-358 824.357,-358 824.357,-333 633.357,-333"/>
<text text-anchor="start" x="638.357" y="-341.8" font-family="Times,serif" font-size="14.00" fill="white">&#45; info</text>
<polygon fill="none" stroke="#002060" points="530.357,-308 530.357,-333 633.357,-333 633.357,-308 530.357,-308"/>
<text text-anchor="start" x="535.357" y="-316.8" font-family="Times,serif" font-size="14.00" fill="white">&#45; tumorAllele1</text>
</g>
<!-- Genotype&#45;&gt;VariantCall -->
<g id="edge14" class="edge"><title>Genotype:isVariantCallEdgesVariantCall:w&#45;&gt;VariantCall:name:w</title>
<path fill="none" stroke="darkgreen" stroke-width="2" stroke-dasharray="5,2" d="M114.357,-626C96.1291,-626 103.319,-598.687 115.357,-585 233.249,-450.952 376.564,-639.879 512.357,-524 527.499,-511.078 513.261,-484.634 520.012,-474.797"/>
<polygon fill="darkgreen" stroke="darkgreen" stroke-width="2" points="529.357,-471 521.786,-478.933 524.913,-473.345 520.28,-475.227 520.092,-474.764 519.904,-474.301 524.536,-472.419 518.398,-470.595 529.357,-471 529.357,-471"/>
</g>
<!-- VariantCallEffect -->
<g id="node6" class="node"><title>VariantCallEffect</title>
<polygon fill="#002060" stroke="none" points="509.357,-564 509.357,-726 821.357,-726 821.357,-564 509.357,-564"/>
<polygon fill="#79a6ff" stroke="none" points="509.357,-689 509.357,-726 821.357,-726 821.357,-689 509.357,-689"/>
<polygon fill="none" stroke="#002060" stroke-width="3" points="510.857,-690.5 510.857,-724.5 819.857,-724.5 819.857,-690.5 510.857,-690.5"/>
<text text-anchor="start" x="594.357" y="-702.5" font-family="Times,serif" font-size="20.00" fill="white">VariantCallEffect</text>
<polygon fill="none" stroke="#002060" points="509.357,-664 509.357,-689 661.357,-689 661.357,-664 509.357,-664"/>
<text text-anchor="start" x="514.357" y="-672.8" font-family="Times,serif" font-size="14.00" fill="white">&#45; name</text>
<polygon fill="none" stroke="#002060" points="661.357,-664 661.357,-689 821.357,-689 821.357,-664 661.357,-664"/>
<text text-anchor="start" x="666.357" y="-672.8" font-family="Times,serif" font-size="14.00" fill="white">&#45; effectOfEdgesVariantCall</text>
<polygon fill="none" stroke="#002060" points="509.357,-639 509.357,-664 661.357,-664 661.357,-639 509.357,-639"/>
<text text-anchor="start" x="514.357" y="-647.8" font-family="Times,serif" font-size="14.00" fill="white">&#45; source</text>
<polygon fill="none" stroke="#002060" points="661.357,-639 661.357,-664 821.357,-664 821.357,-639 661.357,-639"/>
<text text-anchor="start" x="666.357" y="-647.8" font-family="Times,serif" font-size="14.00" fill="white">&#45; dbsnpRS</text>
<polygon fill="none" stroke="#002060" points="509.357,-614 509.357,-639 661.357,-639 661.357,-614 509.357,-614"/>
<text text-anchor="start" x="514.357" y="-622.8" font-family="Times,serif" font-size="14.00" fill="white">&#45; variantClassification</text>
<polygon fill="none" stroke="#002060" points="661.357,-614 661.357,-639 821.357,-639 821.357,-614 661.357,-614"/>
<text text-anchor="start" x="666.357" y="-622.8" font-family="Times,serif" font-size="14.00" fill="white">&#45; dbsnpValStatus</text>
<polygon fill="none" stroke="#002060" points="509.357,-589 509.357,-614 661.357,-614 661.357,-589 509.357,-589"/>
<text text-anchor="start" x="514.357" y="-597.8" font-family="Times,serif" font-size="14.00" fill="white">&#45; inDomainEdgesDomain</text>
<polygon fill="none" stroke="#002060" points="661.357,-589 661.357,-614 821.357,-614 821.357,-589 661.357,-589"/>
<text text-anchor="start" x="666.357" y="-597.8" font-family="Times,serif" font-size="14.00" fill="white">&#45; info</text>
<polygon fill="none" stroke="#002060" points="509.357,-564 509.357,-589 661.357,-589 661.357,-564 509.357,-564"/>
<text text-anchor="start" x="514.357" y="-572.8" font-family="Times,serif" font-size="14.00" fill="white">&#45; inFeatureEdgesFeature</text>
</g>
<!-- VariantCallEffect&#45;&gt;Feature -->
<g id="edge17" class="edge"><title>VariantCallEffect:inFeatureEdgesFeature:w&#45;&gt;Feature:name:w</title>
<path fill="none" stroke="darkgreen" stroke-width="2" stroke-dasharray="5,2" d="M508.357,-576C498.3,-576 499.53,-567.048 492.357,-560 441.684,-510.216 405.725,-514.126 377.357,-449 369.568,-431.119 357.929,-406.646 366.714,-398.098"/>
<polygon fill="darkgreen" stroke="darkgreen" stroke-width="2" points="376.357,-395 368.212,-402.343 371.749,-397.005 366.989,-398.534 366.836,-398.058 366.683,-397.582 371.443,-396.053 365.46,-393.774 376.357,-395 376.357,-395"/>
</g>
<!-- VariantCallEffect&#45;&gt;VariantCall -->
<g id="edge3" class="edge"><title>VariantCallEffect:effectOfEdgesVariantCall:w&#45;&gt;VariantCall:name:w</title>
<path fill="none" stroke="darkgreen" stroke-width="2" stroke-dasharray="5,2" d="M661.357,-676C611.407,-676 495.324,-501.78 519.941,-474.558"/>
<polygon fill="darkgreen" stroke="darkgreen" stroke-width="2" points="529.357,-471 521.593,-478.744 524.856,-473.235 520.179,-475.003 520.002,-474.535 519.826,-474.067 524.503,-472.3 518.412,-470.326 529.357,-471 529.357,-471"/>
</g>
<!-- Domain -->
<g id="node15" class="node"><title>Domain</title>
<polygon fill="#002060" stroke="none" points="858.857,-383 858.857,-445 937.857,-445 937.857,-383 858.857,-383"/>
<polygon fill="#79a6ff" stroke="none" points="859.357,-408 859.357,-445 938.357,-445 938.357,-408 859.357,-408"/>
<polygon fill="none" stroke="#002060" stroke-width="3" points="860.857,-409.5 860.857,-443.5 936.857,-443.5 936.857,-409.5 860.857,-409.5"/>
<text text-anchor="start" x="866.857" y="-421.5" font-family="Times,serif" font-size="20.00" fill="white">Domain</text>
<polygon fill="none" stroke="#002060" points="859.357,-383 859.357,-408 923.357,-408 923.357,-383 859.357,-383"/>
<text text-anchor="start" x="864.357" y="-391.8" font-family="Times,serif" font-size="14.00" fill="white">&#45; name</text>
</g>
<!-- VariantCallEffect&#45;&gt;Domain -->
<g id="edge15" class="edge"><title>VariantCallEffect:inDomainEdgesDomain:w&#45;&gt;Domain:name:w</title>
<path fill="none" stroke="darkgreen" stroke-width="2" stroke-dasharray="5,2" d="M508.357,-601C490.129,-601 497.018,-573.416 509.357,-560 559.592,-505.378 788.282,-575.867 841.357,-524 859.29,-506.475 837.16,-422.335 849.822,-400.295"/>
<polygon fill="darkgreen" stroke="darkgreen" stroke-width="2" points="858.357,-395 852.231,-404.096 854.371,-398.061 850.123,-400.697 849.859,-400.272 849.595,-399.847 853.844,-397.211 847.487,-396.448 858.357,-395 858.357,-395"/>
</g>
<!-- GeneExpression -->
<g id="node7" class="node"><title>GeneExpression</title>
<polygon fill="#002060" stroke="none" points="72.3567,-358 72.3567,-470 322.357,-470 322.357,-358 72.3567,-358"/>
<polygon fill="#79a6ff" stroke="none" points="72.3567,-433 72.3567,-470 322.357,-470 322.357,-433 72.3567,-433"/>
<polygon fill="none" stroke="#002060" stroke-width="3" points="73.8567,-434.5 73.8567,-468.5 320.857,-468.5 320.857,-434.5 73.8567,-434.5"/>
<text text-anchor="start" x="132.357" y="-446.5" font-family="Times,serif" font-size="20.00" fill="white">GeneExpression</text>
<polygon fill="none" stroke="#002060" points="72.3567,-408 72.3567,-433 135.357,-433 135.357,-408 72.3567,-408"/>
<text text-anchor="start" x="77.3567" y="-416.8" font-family="Times,serif" font-size="14.00" fill="white">&#45; name</text>
<polygon fill="none" stroke="#002060" points="135.357,-408 135.357,-433 322.357,-433 322.357,-408 135.357,-408"/>
<text text-anchor="start" x="140.357" y="-416.8" font-family="Times,serif" font-size="14.00" fill="white">&#45; expressionForEdgesBiosample</text>
<polygon fill="none" stroke="#002060" points="72.3567,-383 72.3567,-408 135.357,-408 135.357,-383 72.3567,-383"/>
<text text-anchor="start" x="77.3567" y="-391.8" font-family="Times,serif" font-size="14.00" fill="white">&#45; source</text>
<polygon fill="none" stroke="#002060" points="135.357,-383 135.357,-408 322.357,-408 322.357,-383 135.357,-383"/>
<text text-anchor="start" x="140.357" y="-391.8" font-family="Times,serif" font-size="14.00" fill="white">&#45; expressions</text>
<polygon fill="none" stroke="#002060" points="72.3567,-358 72.3567,-383 135.357,-383 135.357,-358 72.3567,-358"/>
<text text-anchor="start" x="77.3567" y="-366.8" font-family="Times,serif" font-size="14.00" fill="white">&#45; barcode</text>
</g>
<!-- GeneExpression&#45;&gt;Biosample -->
<g id="edge9" class="edge"><title>GeneExpression:expressionForEdgesBiosample:w&#45;&gt;Biosample:name:w</title>
<path fill="none" stroke="darkgreen" stroke-width="2" stroke-dasharray="5,2" d="M135.357,-420C7.30398,-420 206.374,-225.278 338.198,-215.39"/>
<polygon fill="darkgreen" stroke="darkgreen" stroke-width="2" points="348.357,-215 338.537,-219.88 343.38,-215.691 338.383,-215.883 338.364,-215.383 338.345,-214.884 343.341,-214.692 338.192,-210.887 348.357,-215 348.357,-215"/>
</g>
<!-- Biosample&#45;&gt;Individual -->
<g id="edge6" class="edge"><title>Biosample:sampleOfEdgesIndividual:w&#45;&gt;Individual:name:w</title>
<path fill="none" stroke="darkgreen" stroke-width="2" stroke-dasharray="5,2" d="M412.357,-188C325.518,-188 281.011,-183.928 232.357,-112 221.12,-95.3881 211.194,-69.0199 221.485,-60.0802"/>
<polygon fill="darkgreen" stroke="darkgreen" stroke-width="2" points="231.357,-57 223.151,-64.2744 226.733,-58.9666 221.96,-60.456 221.811,-59.9787 221.662,-59.5014 226.435,-58.012 220.47,-55.6829 231.357,-57 231.357,-57"/>
</g>
<!-- PhenotypeAssociation -->
<g id="node10" class="node"><title>PhenotypeAssociation</title>
<polygon fill="#002060" stroke="none" points="850.357,-770.5 850.357,-857.5 1210.36,-857.5 1210.36,-770.5 850.357,-770.5"/>
<polygon fill="#79a6ff" stroke="none" points="850.357,-820 850.357,-857 1210.36,-857 1210.36,-820 850.357,-820"/>
<polygon fill="none" stroke="#002060" stroke-width="3" points="851.857,-821.5 851.857,-855.5 1208.86,-855.5 1208.86,-821.5 851.857,-821.5"/>
<text text-anchor="start" x="942.357" y="-833.5" font-family="Times,serif" font-size="20.00" fill="white">PhenotypeAssociation</text>
<polygon fill="none" stroke="#002060" points="850.357,-795 850.357,-820 1026.36,-820 1026.36,-795 850.357,-795"/>
<text text-anchor="start" x="855.357" y="-803.8" font-family="Times,serif" font-size="14.00" fill="white">&#45; name</text>
<polygon fill="none" stroke="#002060" points="1026.36,-795 1026.36,-820 1210.36,-820 1210.36,-795 1026.36,-795"/>
<text text-anchor="start" x="1031.36" y="-803.8" font-family="Times,serif" font-size="14.00" fill="white">&#45; theContext</text>
<polygon fill="none" stroke="#002060" points="850.357,-770 850.357,-795 1026.36,-795 1026.36,-770 850.357,-770"/>
<text text-anchor="start" x="855.357" y="-778.8" font-family="Times,serif" font-size="14.00" fill="white">&#45; hasGenotypeEdgesGenotype</text>
<polygon fill="none" stroke="#002060" points="1026.36,-770 1026.36,-795 1210.36,-795 1210.36,-770 1026.36,-770"/>
<text text-anchor="start" x="1031.36" y="-778.8" font-family="Times,serif" font-size="14.00" fill="white">&#45; hasPhenotypeEdgesPhenotype</text>
</g>
<!-- PhenotypeAssociation&#45;&gt;Genotype -->
<g id="edge19" class="edge"><title>PhenotypeAssociation:hasGenotypeEdgesGenotype:w&#45;&gt;Genotype:name:w</title>
<path fill="none" stroke="darkgreen" stroke-width="2" stroke-dasharray="5,2" d="M849.357,-782C767.354,-782 170.806,-765.414 115.357,-705 102.289,-690.762 94.1338,-664.219 104.63,-655.14"/>
<polygon fill="darkgreen" stroke="darkgreen" stroke-width="2" points="114.357,-652 106.223,-659.354 109.752,-654.012 104.994,-655.548 104.84,-655.072 104.687,-654.596 109.445,-653.06 103.458,-650.789 114.357,-652 114.357,-652"/>
</g>
<!-- Phenotype -->
<g id="node11" class="node"><title>Phenotype</title>
<polygon fill="#002060" stroke="none" points="1231.36,-601.5 1231.36,-688.5 1481.36,-688.5 1481.36,-601.5 1231.36,-601.5"/>
<polygon fill="#79a6ff" stroke="none" points="1231.36,-651 1231.36,-688 1481.36,-688 1481.36,-651 1231.36,-651"/>
<polygon fill="none" stroke="#002060" stroke-width="3" points="1232.86,-652.5 1232.86,-686.5 1479.86,-686.5 1479.86,-652.5 1232.86,-652.5"/>
<text text-anchor="start" x="1314.36" y="-664.5" font-family="Times,serif" font-size="20.00" fill="white">Phenotype</text>
<polygon fill="none" stroke="#002060" points="1231.36,-626 1231.36,-651 1402.36,-651 1402.36,-626 1231.36,-626"/>
<text text-anchor="start" x="1236.36" y="-634.8" font-family="Times,serif" font-size="14.00" fill="white">&#45; name</text>
<polygon fill="none" stroke="#002060" points="1402.36,-626 1402.36,-651 1481.36,-651 1481.36,-626 1402.36,-626"/>
<text text-anchor="start" x="1407.36" y="-634.8" font-family="Times,serif" font-size="14.00" fill="white">&#45; description</text>
<polygon fill="none" stroke="#002060" points="1231.36,-601 1231.36,-626 1402.36,-626 1402.36,-601 1231.36,-601"/>
<text text-anchor="start" x="1236.36" y="-609.8" font-family="Times,serif" font-size="14.00" fill="white">&#45; isTypeEdgesOntologyTerm</text>
</g>
<!-- PhenotypeAssociation&#45;&gt;Phenotype -->
<g id="edge8" class="edge"><title>PhenotypeAssociation:hasPhenotypeEdgesPhenotype:w&#45;&gt;Phenotype:name:w</title>
<path fill="none" stroke="darkgreen" stroke-width="2" stroke-dasharray="5,2" d="M1026.36,-781C940.21,-781 1155.04,-793.405 1213.36,-730 1238.65,-702.504 1198.65,-650.153 1220.42,-639.803"/>
<polygon fill="darkgreen" stroke="darkgreen" stroke-width="2" points="1230.36,-638 1221.32,-644.214 1225.53,-639.385 1220.61,-640.278 1220.52,-639.786 1220.43,-639.294 1225.35,-638.401 1219.71,-635.358 1230.36,-638 1230.36,-638"/>
</g>
<!-- Context -->
<g id="node16" class="node"><title>Context</title>
<polygon fill="#002060" stroke="none" points="855.857,-589 855.857,-701 1196.86,-701 1196.86,-589 855.857,-589"/>
<polygon fill="#79a6ff" stroke="none" points="856.357,-664 856.357,-701 1197.36,-701 1197.36,-664 856.357,-664"/>
<polygon fill="none" stroke="#002060" stroke-width="3" points="857.857,-665.5 857.857,-699.5 1195.86,-699.5 1195.86,-665.5 857.857,-665.5"/>
<text text-anchor="start" x="995.357" y="-677.5" font-family="Times,serif" font-size="20.00" fill="white">Context</text>
<polygon fill="none" stroke="#002060" points="856.357,-639 856.357,-664 1027.36,-664 1027.36,-639 856.357,-639"/>
<text text-anchor="start" x="861.357" y="-647.8" font-family="Times,serif" font-size="14.00" fill="white">&#45; name</text>
<polygon fill="none" stroke="#002060" points="1027.36,-639 1027.36,-664 1197.36,-664 1197.36,-639 1027.36,-639"/>
<text text-anchor="start" x="1032.36" y="-647.8" font-family="Times,serif" font-size="14.00" fill="white">&#45; hasEvidenceEdgesEvidence</text>
<polygon fill="none" stroke="#002060" points="856.357,-614 856.357,-639 1027.36,-639 1027.36,-614 856.357,-614"/>
<text text-anchor="start" x="861.357" y="-622.8" font-family="Times,serif" font-size="14.00" fill="white">&#45; involvesModelEdgesModel</text>
<polygon fill="none" stroke="#002060" points="1027.36,-614 1027.36,-639 1197.36,-639 1197.36,-614 1027.36,-614"/>
<text text-anchor="start" x="1032.36" y="-622.8" font-family="Times,serif" font-size="14.00" fill="white">&#45; info</text>
<polygon fill="none" stroke="#002060" points="856.357,-589 856.357,-614 1027.36,-614 1027.36,-589 856.357,-589"/>
<text text-anchor="start" x="861.357" y="-597.8" font-family="Times,serif" font-size="14.00" fill="white">&#45; involvesDrugEdgesDrug</text>
</g>
<!-- PhenotypeAssociation&#45;&gt;Context -->
<g id="edge1" class="edge"><title>PhenotypeAssociation:theContext:w&#45;&gt;Context</title>
<path fill="none" stroke="#c55a11" stroke-width="2" d="M1014.35,-804.1C986.228,-794.02 993.339,-745.716 1005.06,-705.124"/>
<polygon fill="none" stroke="#c55a11" stroke-width="2" points="1014.5,-804.125 1021.06,-801.112 1026.36,-806 1019.81,-809.014 1014.5,-804.125"/>
</g>
<!-- Phenotype&#45;&gt;OntologyTerm -->
<g id="edge16" class="edge"><title>Phenotype:isTypeEdgesOntologyTerm:w&#45;&gt;OntologyTerm:name:w</title>
<path fill="none" stroke="darkgreen" stroke-width="2" stroke-dasharray="5,2" d="M1230.36,-613C1223.23,-613 1227.93,-603.248 1231.36,-597 1257.8,-548.744 1302.96,-571.133 1331.36,-524 1342.96,-504.748 1327.92,-432.811 1339.78,-412.419"/>
<polygon fill="darkgreen" stroke="darkgreen" stroke-width="2" points="1348.36,-407 1342.31,-416.147 1344.4,-410.094 1340.17,-412.766 1339.9,-412.343 1339.64,-411.921 1343.86,-409.249 1337.5,-408.54 1348.36,-407 1348.36,-407"/>
</g>
<!-- Evidence -->
<g id="node12" class="node"><title>Evidence</title>
<polygon fill="#002060" stroke="none" points="1223.86,-370.5 1223.86,-457.5 1314.86,-457.5 1314.86,-370.5 1223.86,-370.5"/>
<polygon fill="#79a6ff" stroke="none" points="1224.36,-420 1224.36,-457 1315.36,-457 1315.36,-420 1224.36,-420"/>
<polygon fill="none" stroke="#002060" stroke-width="3" points="1225.86,-421.5 1225.86,-455.5 1313.86,-455.5 1313.86,-421.5 1225.86,-421.5"/>
<text text-anchor="start" x="1232.86" y="-433.5" font-family="Times,serif" font-size="20.00" fill="white">Evidence</text>
<polygon fill="none" stroke="#002060" points="1224.36,-395 1224.36,-420 1274.36,-420 1274.36,-395 1224.36,-395"/>
<text text-anchor="start" x="1229.36" y="-403.8" font-family="Times,serif" font-size="14.00" fill="white">&#45; name</text>
<polygon fill="none" stroke="#002060" points="1274.36,-395 1274.36,-420 1315.36,-420 1315.36,-395 1274.36,-395"/>
<text text-anchor="start" x="1279.36" y="-403.8" font-family="Times,serif" font-size="14.00" fill="white">&#45; info</text>
<polygon fill="none" stroke="#002060" points="1224.36,-370 1224.36,-395 1274.36,-395 1274.36,-370 1224.36,-370"/>
<text text-anchor="start" x="1229.36" y="-378.8" font-family="Times,serif" font-size="14.00" fill="white">&#45; pmid</text>
</g>
<!-- Model -->
<g id="node13" class="node"><title>Model</title>
<polygon fill="#002060" stroke="none" points="971.857,-383 971.857,-445 1038.86,-445 1038.86,-383 971.857,-383"/>
<polygon fill="#79a6ff" stroke="none" points="972.357,-408 972.357,-445 1039.36,-445 1039.36,-408 972.357,-408"/>
<polygon fill="none" stroke="#002060" stroke-width="3" points="973.857,-409.5 973.857,-443.5 1037.86,-443.5 1037.86,-409.5 973.857,-409.5"/>
<text text-anchor="start" x="979.857" y="-421.5" font-family="Times,serif" font-size="20.00" fill="white">Model</text>
<polygon fill="none" stroke="#002060" points="972.357,-383 972.357,-408 1030.36,-408 1030.36,-383 972.357,-383"/>
<text text-anchor="start" x="977.357" y="-391.8" font-family="Times,serif" font-size="14.00" fill="white">&#45; name</text>
</g>
<!-- VariantCall&#45;&gt;Position -->
<g id="edge10" class="edge"><title>VariantCall:atPositionEdgesPosition:w&#45;&gt;Position:name:w</title>
<path fill="none" stroke="darkgreen" stroke-width="2" stroke-dasharray="5,2" d="M633.357,-420C591.36,-420 587.229,-245.78 622.531,-218.558"/>
<polygon fill="darkgreen" stroke="darkgreen" stroke-width="2" points="632.357,-215 624.486,-222.636 627.826,-217.173 623.124,-218.875 622.954,-218.405 622.784,-217.935 627.485,-216.232 621.422,-214.174 632.357,-215 632.357,-215"/>
</g>
<!-- VariantCall&#45;&gt;Biosample -->
<g id="edge4" class="edge"><title>VariantCall:tumorSampleEdgesBiosample:w&#45;&gt;Biosample:name:w</title>
<path fill="none" stroke="darkgreen" stroke-width="2" stroke-dasharray="5,2" d="M633.357,-394C566.334,-394 573.321,-331.845 512.357,-304 444.872,-273.177 396.361,-325.401 349.357,-268 337.112,-253.047 328.43,-226.962 338.71,-218.07"/>
<polygon fill="darkgreen" stroke="darkgreen" stroke-width="2" points="348.357,-215 340.193,-222.321 343.744,-216.993 338.979,-218.509 338.828,-218.033 338.676,-217.556 343.441,-216.04 337.463,-213.745 348.357,-215 348.357,-215"/>
</g>
<!-- VariantCall&#45;&gt;Biosample -->
<g id="edge18" class="edge"><title>VariantCall:normalSampleEdgesBiosample:w&#45;&gt;Biosample:name:w</title>
<path fill="none" stroke="darkgreen" stroke-width="2" stroke-dasharray="5,2" d="M633.357,-369C572.311,-369 569.593,-325.228 512.357,-304 442.797,-278.201 396.361,-325.401 349.357,-268 337.112,-253.047 328.43,-226.962 338.71,-218.07"/>
<polygon fill="darkgreen" stroke="darkgreen" stroke-width="2" points="348.357,-215 340.193,-222.321 343.744,-216.993 338.979,-218.509 338.828,-218.033 338.676,-217.556 343.441,-216.04 337.463,-213.745 348.357,-215 348.357,-215"/>
</g>
<!-- Context&#45;&gt;Drug -->
<g id="edge11" class="edge"><title>Context:involvesDrugEdgesDrug:w&#45;&gt;Drug:name:w</title>
<path fill="none" stroke="darkgreen" stroke-width="2" stroke-dasharray="5,2" d="M855.357,-601C848.232,-601 851.944,-590.594 856.357,-585 913.649,-512.37 995.141,-594.224 1055.36,-524 1069.99,-506.938 1052.8,-433.444 1063.97,-412.556"/>
<polygon fill="darkgreen" stroke="darkgreen" stroke-width="2" points="1072.36,-407 1066.51,-416.276 1068.47,-410.179 1064.3,-412.942 1064.02,-412.525 1063.75,-412.108 1067.91,-409.346 1061.54,-408.774 1072.36,-407 1072.36,-407"/>
</g>
<!-- Context&#45;&gt;Evidence -->
<g id="edge7" class="edge"><title>Context:hasEvidenceEdgesEvidence:w&#45;&gt;Evidence:name:w</title>
<path fill="none" stroke="darkgreen" stroke-width="2" stroke-dasharray="5,2" d="M1027.36,-651C929.812,-651 1155.45,-607.21 1206.36,-524 1218.09,-504.827 1202.96,-432.834 1214.79,-412.424"/>
<polygon fill="darkgreen" stroke="darkgreen" stroke-width="2" points="1223.36,-407 1217.32,-416.152 1219.4,-410.098 1215.18,-412.773 1214.91,-412.351 1214.64,-411.928 1218.87,-409.253 1212.5,-408.549 1223.36,-407 1223.36,-407"/>
</g>
<!-- Context&#45;&gt;Model -->
<g id="edge12" class="edge"><title>Context:involvesModelEdgesModel:w&#45;&gt;Model:name:w</title>
<path fill="none" stroke="darkgreen" stroke-width="2" stroke-dasharray="5,2" d="M855.357,-626C837.129,-626 847.312,-600.825 856.357,-585 881.813,-540.457 926.562,-567.123 954.357,-524 967.941,-502.924 949.005,-421.392 962.592,-400.107"/>
<polygon fill="darkgreen" stroke="darkgreen" stroke-width="2" points="971.357,-395 964.982,-403.922 967.288,-397.949 962.968,-400.466 962.716,-400.034 962.465,-399.602 966.785,-397.085 960.451,-396.146 971.357,-395 971.357,-395"/>
</g>
</g>
</svg>
