<?xml version="1.0" encoding="UTF-8" standalone="no"?>
<!DOCTYPE svg PUBLIC "-//W3C//DTD SVG 1.1//EN"
 "http://www.w3.org/Graphics/SVG/1.1/DTD/svg11.dtd">
<!-- Generated by graphviz version 2.36.0 (20140111.2315)
 -->
<!-- Title: UML Pages: 1 -->
<svg width="634pt" height="817pt"
 viewBox="0.00 0.00 634.00 817.00" xmlns="http://www.w3.org/2000/svg" xmlns:xlink="http://www.w3.org/1999/xlink">
<g id="graph0" class="graph" transform="scale(1 1) rotate(0) translate(4 813)">
<title>UML</title>
<polygon fill="white" stroke="none" points="-4,4 -4,-813 630,-813 630,4 -4,4"/>
<g id="clust1" class="cluster"><title>cluster_ml_schema_proto</title>
<g id="a_clust1"><a xlink:href="https://github.com/kellrott/ml-schema/blob/master/proto/ml_schema.proto" xlink:title="ml_schema_proto">
<path fill="lightgrey" stroke="lightgrey" d="M20,-8C20,-8 606,-8 606,-8 612,-8 618,-14 618,-20 618,-20 618,-789 618,-789 618,-795 612,-801 606,-801 606,-801 20,-801 20,-801 14,-801 8,-795 8,-789 8,-789 8,-20 8,-20 8,-14 14,-8 20,-8"/>
<text text-anchor="middle" x="313" y="-785.8" font-family="Times,serif" font-size="14.00">ml_schema_proto</text>
</a>
</g>
</g>
<!-- LinearCoeffData -->
<g id="node1" class="node"><title>LinearCoeffData</title>
<polygon fill="#002060" stroke="none" points="451.5,-282.5 451.5,-369.5 602.5,-369.5 602.5,-282.5 451.5,-282.5"/>
<polygon fill="#79a6ff" stroke="none" points="452,-332 452,-369 603,-369 603,-332 452,-332"/>
<polygon fill="none" stroke="#002060" stroke-width="3" points="453.5,-333.5 453.5,-367.5 601.5,-367.5 601.5,-333.5 453.5,-333.5"/>
<text text-anchor="start" x="459.5" y="-345.5" font-family="Times,serif" font-size="20.00" fill="white">LinearCoeffData</text>
<polygon fill="none" stroke="#002060" points="452,-307 452,-332 536,-332 536,-307 452,-307"/>
<text text-anchor="start" x="457" y="-315.8" font-family="Times,serif" font-size="14.00" fill="white">&#45; Intercept</text>
<polygon fill="none" stroke="#002060" points="536,-307 536,-332 603,-332 603,-307 536,-307"/>
<text text-anchor="start" x="541" y="-315.8" font-family="Times,serif" font-size="14.00" fill="white">&#45; Coeff</text>
<polygon fill="none" stroke="#002060" points="452,-282 452,-307 536,-307 536,-282 452,-282"/>
<text text-anchor="start" x="457" y="-290.8" font-family="Times,serif" font-size="14.00" fill="white">&#45; Alpha</text>
</g>
<!-- FeatureCoefficient -->
<g id="node3" class="node"><title>FeatureCoefficient</title>
<polygon fill="#002060" stroke="none" points="436.5,-176 436.5,-238 601.5,-238 601.5,-176 436.5,-176"/>
<polygon fill="#79a6ff" stroke="none" points="437,-201 437,-238 602,-238 602,-201 437,-201"/>
<polygon fill="none" stroke="#002060" stroke-width="3" points="438.5,-202.5 438.5,-236.5 600.5,-236.5 600.5,-202.5 438.5,-202.5"/>
<text text-anchor="start" x="444.5" y="-214.5" font-family="Times,serif" font-size="20.00" fill="white">FeatureCoefficient</text>
<polygon fill="none" stroke="#002060" points="437,-176 437,-201 524,-201 524,-176 437,-176"/>
<text text-anchor="start" x="442" y="-184.8" font-family="Times,serif" font-size="14.00" fill="white">&#45; Feature</text>
<polygon fill="none" stroke="#002060" points="524,-176 524,-201 602,-201 602,-176 524,-176"/>
<text text-anchor="start" x="529" y="-184.8" font-family="Times,serif" font-size="14.00" fill="white">&#45; Coeff</text>
</g>
<!-- LinearCoeffData&#45;&gt;FeatureCoefficient -->
<g id="edge1" class="edge"><title>LinearCoeffData:Coeff:w&#45;&gt;FeatureCoefficient</title>
<path fill="none" stroke="#c55a11" stroke-width="2" d="M524.195,-315.303C505.361,-305.331 506.964,-269.699 511.433,-242.202"/>
<polygon fill="none" stroke="#c55a11" stroke-width="2" points="524.301,-315.327 531.042,-312.764 536,-318 529.26,-320.563 524.301,-315.327"/>
</g>
<!-- ModelPerformance -->
<g id="node2" class="node"><title>ModelPerformance</title>
<polygon fill="#002060" stroke="none" points="180,-546.5 180,-633.5 350,-633.5 350,-546.5 180,-546.5"/>
<polygon fill="#79a6ff" stroke="none" points="180,-596 180,-633 350,-633 350,-596 180,-596"/>
<polygon fill="none" stroke="#002060" stroke-width="3" points="181.5,-597.5 181.5,-631.5 348.5,-631.5 348.5,-597.5 181.5,-597.5"/>
<text text-anchor="start" x="187.5" y="-609.5" font-family="Times,serif" font-size="20.00" fill="white">ModelPerformance</text>
<polygon fill="none" stroke="#002060" points="180,-571 180,-596 270,-596 270,-571 180,-571"/>
<text text-anchor="start" x="185" y="-579.8" font-family="Times,serif" font-size="14.00" fill="white">&#45; ModelID</text>
<polygon fill="none" stroke="#002060" points="270,-571 270,-596 350,-596 350,-571 270,-571"/>
<text text-anchor="start" x="275" y="-579.8" font-family="Times,serif" font-size="14.00" fill="white">&#45; Cutoffs</text>
<polygon fill="none" stroke="#002060" points="180,-546 180,-571 270,-571 270,-546 180,-546"/>
<text text-anchor="start" x="185" y="-554.8" font-family="Times,serif" font-size="14.00" fill="white">&#45; Metrics</text>
</g>
<!-- Model -->
<g id="node4" class="node"><title>Model</title>
<polygon fill="#002060" stroke="none" points="196,-678.5 196,-765.5 354,-765.5 354,-678.5 196,-678.5"/>
<polygon fill="#79a6ff" stroke="none" points="196,-728 196,-765 354,-765 354,-728 196,-728"/>
<polygon fill="none" stroke="#002060" stroke-width="3" points="197.5,-729.5 197.5,-763.5 352.5,-763.5 352.5,-729.5 197.5,-729.5"/>
<text text-anchor="start" x="249" y="-741.5" font-family="Times,serif" font-size="20.00" fill="white">Model</text>
<polygon fill="none" stroke="#002060" points="196,-703 196,-728 265,-728 265,-703 196,-703"/>
<text text-anchor="start" x="201" y="-711.8" font-family="Times,serif" font-size="14.00" fill="white">&#45; ID</text>
<polygon fill="none" stroke="#002060" points="265,-703 265,-728 354,-728 354,-703 265,-703"/>
<text text-anchor="start" x="270" y="-711.8" font-family="Times,serif" font-size="14.00" fill="white">&#45; Performance</text>
<polygon fill="none" stroke="#002060" points="196,-678 196,-703 265,-703 265,-678 196,-678"/>
<text text-anchor="start" x="201" y="-686.8" font-family="Times,serif" font-size="14.00" fill="white">&#45; Structure</text>
</g>
<!-- ModelPerformance&#45;&gt;Model -->
<g id="edge12" class="edge"><title>ModelPerformance:ModelID:w&#45;&gt;Model:id:w</title>
<path fill="none" stroke="darkgreen" stroke-width="2" stroke-dasharray="5,2" d="M179,-583C123.367,-583 134.287,-699.984 185.062,-713.694"/>
<polygon fill="darkgreen" stroke="darkgreen" stroke-width="2" points="195,-715 184.499,-718.158 189.977,-714.844 185.02,-714.192 185.085,-713.696 185.15,-713.201 190.108,-713.853 185.672,-709.235 195,-715 195,-715"/>
</g>
<!-- CutoffMetrics -->
<g id="node6" class="node"><title>CutoffMetrics</title>
<polygon fill="#002060" stroke="none" points="206,-427 206,-489 334,-489 334,-427 206,-427"/>
<polygon fill="#79a6ff" stroke="none" points="206,-452 206,-489 334,-489 334,-452 206,-452"/>
<polygon fill="none" stroke="#002060" stroke-width="3" points="207.5,-453.5 207.5,-487.5 332.5,-487.5 332.5,-453.5 207.5,-453.5"/>
<text text-anchor="start" x="213.5" y="-465.5" font-family="Times,serif" font-size="20.00" fill="white">CutoffMetrics</text>
<polygon fill="none" stroke="#002060" points="206,-427 206,-452 271,-452 271,-427 206,-427"/>
<text text-anchor="start" x="211" y="-435.8" font-family="Times,serif" font-size="14.00" fill="white">&#45; Value</text>
<polygon fill="none" stroke="#002060" points="271,-427 271,-452 334,-452 334,-427 271,-427"/>
<text text-anchor="start" x="276" y="-435.8" font-family="Times,serif" font-size="14.00" fill="white">&#45; Truth</text>
</g>
<!-- ModelPerformance&#45;&gt;CutoffMetrics -->
<g id="edge11" class="edge"><title>ModelPerformance:Cutoffs:w&#45;&gt;CutoffMetrics</title>
<path fill="none" stroke="#c55a11" stroke-width="2" d="M258.147,-579.39C237.242,-568.378 246.78,-524.823 257.069,-493.262"/>
<polygon fill="none" stroke="#c55a11" stroke-width="2" points="258.281,-579.42 265,-576.803 270,-582 263.28,-584.616 258.281,-579.42"/>
</g>
<!-- MetricSummary -->
<g id="node7" class="node"><title>MetricSummary</title>
<polygon fill="#002060" stroke="none" points="24.5,-427 24.5,-489 171.5,-489 171.5,-427 24.5,-427"/>
<polygon fill="#79a6ff" stroke="none" points="25,-452 25,-489 172,-489 172,-452 25,-452"/>
<polygon fill="none" stroke="#002060" stroke-width="3" points="26.5,-453.5 26.5,-487.5 170.5,-487.5 170.5,-453.5 26.5,-453.5"/>
<text text-anchor="start" x="32.5" y="-465.5" font-family="Times,serif" font-size="20.00" fill="white">MetricSummary</text>
<polygon fill="none" stroke="#002060" points="25,-427 25,-452 97,-452 97,-427 25,-427"/>
<text text-anchor="start" x="30" y="-435.8" font-family="Times,serif" font-size="14.00" fill="white">&#45; Type</text>
<polygon fill="none" stroke="#002060" points="97,-427 97,-452 172,-452 172,-427 97,-427"/>
<text text-anchor="start" x="102" y="-435.8" font-family="Times,serif" font-size="14.00" fill="white">&#45; Value</text>
</g>
<!-- ModelPerformance&#45;&gt;MetricSummary -->
<g id="edge5" class="edge"><title>ModelPerformance:Metrics:w&#45;&gt;MetricSummary</title>
<path fill="none" stroke="#c55a11" stroke-width="2" d="M167.019,-556.481C139.294,-549.323 120.651,-518.24 109.802,-493.07"/>
<polygon fill="none" stroke="#c55a11" stroke-width="2" points="167.095,-556.491 173.551,-553.277 179,-558 172.545,-561.214 167.095,-556.491"/>
</g>
<!-- Model&#45;&gt;ModelPerformance -->
<g id="edge7" class="edge"><title>Model:Performance:w&#45;&gt;ModelPerformance</title>
<path fill="none" stroke="#c55a11" stroke-width="2" d="M253.174,-711.404C234.836,-701.781 239.875,-667.162 248.325,-637.501"/>
<polygon fill="none" stroke="#c55a11" stroke-width="2" points="253.279,-711.427 259.997,-708.807 265,-714 258.282,-716.621 253.279,-711.427"/>
</g>
<!-- ModelStructure -->
<g id="node10" class="node"><title>ModelStructure</title>
<polygon fill="#002060" stroke="none" points="422,-559 422,-621 562,-621 562,-559 422,-559"/>
<polygon fill="#79a6ff" stroke="none" points="422,-584 422,-621 562,-621 562,-584 422,-584"/>
<polygon fill="none" stroke="#002060" stroke-width="3" points="423.5,-585.5 423.5,-619.5 560.5,-619.5 560.5,-585.5 423.5,-585.5"/>
<text text-anchor="start" x="429.5" y="-597.5" font-family="Times,serif" font-size="20.00" fill="white">ModelStructure</text>
<polygon fill="none" stroke="#002060" points="422,-559 422,-584 536,-584 536,-559 422,-559"/>
<text text-anchor="start" x="427" y="-567.8" font-family="Times,serif" font-size="14.00" fill="white">&#45; Components</text>
</g>
<!-- Model&#45;&gt;ModelStructure -->
<g id="edge9" class="edge"><title>Model:Structure:w&#45;&gt;ModelStructure</title>
<path fill="none" stroke="#c55a11" stroke-width="2" d="M193.213,-678.122C194.02,-676.609 194.981,-675.18 196,-674 246.474,-615.545 291.838,-659.555 366,-638 381.694,-633.439 398.226,-627.858 413.964,-622.156"/>
<polygon fill="none" stroke="#c55a11" stroke-width="2" points="193.215,-678.134 198.063,-683.472 195,-690 190.152,-684.662 193.215,-678.134"/>
</g>
<!-- ModelComponent -->
<g id="node5" class="node"><title>ModelComponent</title>
<polygon fill="#002060" stroke="none" points="368.5,-414.5 368.5,-501.5 553.5,-501.5 553.5,-414.5 368.5,-414.5"/>
<polygon fill="#79a6ff" stroke="none" points="369,-464 369,-501 554,-501 554,-464 369,-464"/>
<polygon fill="none" stroke="#002060" stroke-width="3" points="370.5,-465.5 370.5,-499.5 552.5,-499.5 552.5,-465.5 370.5,-465.5"/>
<text text-anchor="start" x="389" y="-477.5" font-family="Times,serif" font-size="20.00" fill="white">ModelComponent</text>
<polygon fill="none" stroke="#002060" points="369,-439 369,-464 469,-464 469,-439 369,-439"/>
<text text-anchor="start" x="374" y="-447.8" font-family="Times,serif" font-size="14.00" fill="white">&#45; Coeff</text>
<polygon fill="none" stroke="#002060" points="469,-439 469,-464 554,-464 554,-439 469,-439"/>
<text text-anchor="start" x="474" y="-447.8" font-family="Times,serif" font-size="14.00" fill="white">&#45; LinearCoeff</text>
<polygon fill="none" stroke="#002060" points="369,-414 369,-439 469,-439 469,-414 369,-414"/>
<text text-anchor="start" x="374" y="-422.8" font-family="Times,serif" font-size="14.00" fill="white">&#45; RandomForest</text>
</g>
<!-- ModelComponent&#45;&gt;LinearCoeffData -->
<g id="edge3" class="edge"><title>ModelComponent:LinearCoeff:w&#45;&gt;LinearCoeffData</title>
<path fill="none" stroke="#c55a11" stroke-width="2" d="M457.149,-447.404C441.412,-437.781 463.308,-403.162 486.636,-373.501"/>
<polygon fill="none" stroke="#c55a11" stroke-width="2" points="457.278,-447.433 463.995,-444.809 469,-450 462.283,-452.624 457.278,-447.433"/>
</g>
<!-- RandomForestData -->
<g id="node11" class="node"><title>RandomForestData</title>
<polygon fill="#002060" stroke="none" points="248,-295 248,-357 418,-357 418,-295 248,-295"/>
<polygon fill="#79a6ff" stroke="none" points="248,-320 248,-357 418,-357 418,-320 248,-320"/>
<polygon fill="none" stroke="#002060" stroke-width="3" points="249.5,-321.5 249.5,-355.5 416.5,-355.5 416.5,-321.5 249.5,-321.5"/>
<text text-anchor="start" x="255.5" y="-333.5" font-family="Times,serif" font-size="20.00" fill="white">RandomForestData</text>
<polygon fill="none" stroke="#002060" points="248,-295 248,-320 360,-320 360,-295 248,-295"/>
<text text-anchor="start" x="253" y="-303.8" font-family="Times,serif" font-size="14.00" fill="white">&#45; Forest</text>
</g>
<!-- ModelComponent&#45;&gt;RandomForestData -->
<g id="edge6" class="edge"><title>ModelComponent:RandomForest:w&#45;&gt;RandomForestData</title>
<path fill="none" stroke="#c55a11" stroke-width="2" d="M357.647,-419.142C348.94,-407.26 342.541,-382.101 338.448,-361.07"/>
<polygon fill="none" stroke="#c55a11" stroke-width="2" points="357.996,-419.373 365.207,-419.352 368,-426 360.789,-426.021 357.996,-419.373"/>
</g>
<!-- ConfusionMatrix -->
<g id="node12" class="node"><title>ConfusionMatrix</title>
<polygon fill="#002060" stroke="none" points="24,-282.5 24,-369.5 214,-369.5 214,-282.5 24,-282.5"/>
<polygon fill="#79a6ff" stroke="none" points="24,-332 24,-369 214,-369 214,-332 24,-332"/>
<polygon fill="none" stroke="#002060" stroke-width="3" points="25.5,-333.5 25.5,-367.5 212.5,-367.5 212.5,-333.5 25.5,-333.5"/>
<text text-anchor="start" x="51" y="-345.5" font-family="Times,serif" font-size="20.00" fill="white">ConfusionMatrix</text>
<polygon fill="none" stroke="#002060" points="24,-307 24,-332 118,-332 118,-307 24,-307"/>
<text text-anchor="start" x="29" y="-315.8" font-family="Times,serif" font-size="14.00" fill="white">&#45; TruePositive</text>
<polygon fill="none" stroke="#002060" points="118,-307 118,-332 214,-332 214,-307 118,-307"/>
<text text-anchor="start" x="123" y="-315.8" font-family="Times,serif" font-size="14.00" fill="white">&#45; FalsePositive</text>
<polygon fill="none" stroke="#002060" points="24,-282 24,-307 118,-307 118,-282 24,-282"/>
<text text-anchor="start" x="29" y="-290.8" font-family="Times,serif" font-size="14.00" fill="white">&#45; TrueNegative</text>
<polygon fill="none" stroke="#002060" points="118,-282 118,-307 214,-307 214,-282 118,-282"/>
<text text-anchor="start" x="123" y="-290.8" font-family="Times,serif" font-size="14.00" fill="white">&#45; FalseNegative</text>
</g>
<!-- CutoffMetrics&#45;&gt;ConfusionMatrix -->
<g id="edge10" class="edge"><title>CutoffMetrics:Truth:w&#45;&gt;ConfusionMatrix</title>
<path fill="none" stroke="#c55a11" stroke-width="2" d="M258.923,-437.24C217.563,-432.067 180.747,-401.422 155.273,-373.752"/>
<polygon fill="none" stroke="#c55a11" stroke-width="2" points="259.024,-437.246 265.263,-433.631 271,-438 264.76,-441.615 259.024,-437.246"/>
</g>
<!-- DecisionTree -->
<g id="node8" class="node"><title>DecisionTree</title>
<polygon fill="#002060" stroke="none" points="187,-176 187,-238 309,-238 309,-176 187,-176"/>
<polygon fill="#79a6ff" stroke="none" points="187,-201 187,-238 309,-238 309,-201 187,-201"/>
<polygon fill="none" stroke="#002060" stroke-width="3" points="188.5,-202.5 188.5,-236.5 307.5,-236.5 307.5,-202.5 188.5,-202.5"/>
<text text-anchor="start" x="194.5" y="-214.5" font-family="Times,serif" font-size="20.00" fill="white">DecisionTree</text>
<polygon fill="none" stroke="#002060" points="187,-176 187,-201 275,-201 275,-176 187,-176"/>
<text text-anchor="start" x="192" y="-184.8" font-family="Times,serif" font-size="14.00" fill="white">&#45; Nodes</text>
</g>
<!-- DecisionNode -->
<g id="node9" class="node"><title>DecisionNode</title>
<polygon fill="#002060" stroke="none" points="102.5,-20 102.5,-132 271.5,-132 271.5,-20 102.5,-20"/>
<polygon fill="#79a6ff" stroke="none" points="103,-95 103,-132 272,-132 272,-95 103,-95"/>
<polygon fill="none" stroke="#002060" stroke-width="3" points="104.5,-96.5 104.5,-130.5 270.5,-130.5 270.5,-96.5 104.5,-96.5"/>
<text text-anchor="start" x="131" y="-108.5" font-family="Times,serif" font-size="20.00" fill="white">DecisionNode</text>
<polygon fill="none" stroke="#002060" points="103,-70 103,-95 195,-95 195,-70 103,-70"/>
<text text-anchor="start" x="108" y="-78.8" font-family="Times,serif" font-size="14.00" fill="white">&#45; AboveChild</text>
<polygon fill="none" stroke="#002060" points="195,-70 195,-95 272,-95 272,-70 195,-70"/>
<text text-anchor="start" x="200" y="-78.8" font-family="Times,serif" font-size="14.00" fill="white">&#45; SplitValue</text>
<polygon fill="none" stroke="#002060" points="103,-45 103,-70 195,-70 195,-45 103,-45"/>
<text text-anchor="start" x="108" y="-53.8" font-family="Times,serif" font-size="14.00" fill="white">&#45; BelowChild</text>
<polygon fill="none" stroke="#002060" points="195,-45 195,-70 272,-70 272,-45 195,-45"/>
<text text-anchor="start" x="200" y="-53.8" font-family="Times,serif" font-size="14.00" fill="white">&#45; LeafNode</text>
<polygon fill="none" stroke="#002060" points="103,-20 103,-45 195,-45 195,-20 103,-20"/>
<text text-anchor="start" x="108" y="-28.8" font-family="Times,serif" font-size="14.00" fill="white">&#45; SplitVariable</text>
<polygon fill="none" stroke="#002060" points="195,-20 195,-45 272,-45 272,-20 195,-20"/>
<text text-anchor="start" x="200" y="-28.8" font-family="Times,serif" font-size="14.00" fill="white">&#45; Label</text>
</g>
<!-- DecisionTree&#45;&gt;DecisionNode -->
<g id="edge4" class="edge"><title>DecisionTree:Nodes:w&#45;&gt;DecisionNode</title>
<path fill="none" stroke="#c55a11" stroke-width="2" d="M174.301,-185.058C162.337,-177.629 162.745,-157.199 167.208,-136.075"/>
<polygon fill="none" stroke="#c55a11" stroke-width="2" points="174.362,-185.073 181.157,-182.657 186,-188 179.206,-190.416 174.362,-185.073"/>
</g>
<!-- ModelStructure&#45;&gt;ModelComponent -->
<g id="edge2" class="edge"><title>ModelStructure:Components:w&#45;&gt;ModelComponent</title>
<path fill="none" stroke="#c55a11" stroke-width="2" d="M409.274,-567.863C397.359,-558.656 410.85,-530.768 427.033,-505.525"/>
<polygon fill="none" stroke="#c55a11" stroke-width="2" points="409.408,-567.898 416.238,-565.585 421,-571 414.17,-573.313 409.408,-567.898"/>
</g>
<!-- RandomForestData&#45;&gt;DecisionTree -->
<g id="edge8" class="edge"><title>RandomForestData:Forest:w&#45;&gt;DecisionTree</title>
<path fill="none" stroke="#c55a11" stroke-width="2" d="M238.884,-297.709C235.801,-285.065 238.287,-261.758 241.435,-242.07"/>
<polygon fill="none" stroke="#c55a11" stroke-width="2" points="239.106,-297.962 246.065,-299.85 247,-307 240.04,-305.113 239.106,-297.962"/>
</g>
</g>
</svg>
