<?xml version="1.0" encoding="UTF-8" standalone="no"?>
<!DOCTYPE svg PUBLIC "-//W3C//DTD SVG 1.1//EN"
 "http://www.w3.org/Graphics/SVG/1.1/DTD/svg11.dtd">
<!-- Generated by graphviz version 2.36.0 (20140111.2315)
 -->
<!-- Title: UML Pages: 1 -->
<svg width="696pt" height="608pt"
 viewBox="0.00 0.00 696.35 608.00" xmlns="http://www.w3.org/2000/svg" xmlns:xlink="http://www.w3.org/1999/xlink">
<g id="graph0" class="graph" transform="scale(1 1) rotate(0) translate(4 604)">
<title>UML</title>
<polygon fill="white" stroke="none" points="-4,4 -4,-604 692.346,-604 692.346,4 -4,4"/>
<!-- Strand -->
<g id="node1" class="node"><title>Strand</title>
<polygon fill="#002060" stroke="none" points="194.846,-15.5 194.846,-80.5 391.846,-80.5 391.846,-15.5 194.846,-15.5"/>
<polygon fill="#79a6ff" stroke="none" points="195.346,-15 195.346,-80 392.346,-80 392.346,-15 195.346,-15"/>
<polygon fill="none" stroke="#002060" stroke-width="3" points="196.846,-16.5 196.846,-78.5 390.846,-78.5 390.846,-16.5 196.846,-16.5"/>
<text text-anchor="start" x="267.846" y="-57.5" font-family="Times,serif" font-size="20.00" fill="white">Strand</text>
<text text-anchor="start" x="203.346" y="-41.5" font-family="Times,serif" font-size="15.00" fill="white">Indicates the associated DNA</text>
<text text-anchor="start" x="215.346" y="-26.5" font-family="Times,serif" font-size="15.00" fill="white">strand for some data item</text>
</g>
<!-- Position -->
<g id="node2" class="node"><title>Position</title>
<polygon fill="#002060" stroke="none" points="183.346,-136.5 183.346,-251.5 349.346,-251.5 349.346,-136.5 183.346,-136.5"/>
<polygon fill="#79a6ff" stroke="none" points="183.346,-186 183.346,-251 349.346,-251 349.346,-186 183.346,-186"/>
<polygon fill="none" stroke="#002060" stroke-width="3" points="184.846,-187.5 184.846,-249.5 347.846,-249.5 347.846,-187.5 184.846,-187.5"/>
<text text-anchor="start" x="234.346" y="-228.5" font-family="Times,serif" font-size="20.00" fill="white">Position</text>
<text text-anchor="start" x="191.346" y="-212.5" font-family="Times,serif" font-size="15.00" fill="white">one or more consecutive</text>
<text text-anchor="start" x="190.846" y="-197.5" font-family="Times,serif" font-size="15.00" fill="white">bases in some Reference</text>
<polygon fill="none" stroke="#002060" points="183.346,-161 183.346,-186 293.346,-186 293.346,-161 183.346,-161"/>
<text text-anchor="start" x="188.346" y="-169.8" font-family="Times,serif" font-size="14.00" fill="white">&#45; reference_name</text>
<polygon fill="none" stroke="#002060" points="293.346,-161 293.346,-186 349.346,-186 349.346,-161 293.346,-161"/>
<text text-anchor="start" x="298.346" y="-169.8" font-family="Times,serif" font-size="14.00" fill="white">&#45; start</text>
<polygon fill="none" stroke="#002060" points="183.346,-136 183.346,-161 293.346,-161 293.346,-136 183.346,-136"/>
<text text-anchor="start" x="188.346" y="-144.8" font-family="Times,serif" font-size="14.00" fill="white">&#45; end</text>
<polygon fill="none" stroke="#002060" points="293.346,-136 293.346,-161 349.346,-161 349.346,-136 293.346,-136"/>
<text text-anchor="start" x="298.346" y="-144.8" font-family="Times,serif" font-size="14.00" fill="white">&#45; strand</text>
</g>
<!-- Position&#45;&gt;Strand -->
<g id="edge1" class="edge"><title>Position:strand:w&#45;&gt;Strand</title>
<path fill="none" stroke="#c55a11" stroke-width="2" d="M281.533,-143.375C269.549,-133.833 273.896,-107.205 280.461,-84.6575"/>
<polygon fill="none" stroke="#c55a11" stroke-width="2" points="281.874,-143.48 288.784,-141.416 293.346,-147 286.437,-149.064 281.874,-143.48"/>
</g>
<!-- VariantCall -->
<g id="node3" class="node"><title>VariantCall</title>
<polygon fill="#002060" stroke="none" points="367.846,-296 367.846,-436 680.846,-436 680.846,-296 367.846,-296"/>
<polygon fill="#79a6ff" stroke="none" points="368.346,-371 368.346,-436 681.346,-436 681.346,-371 368.346,-371"/>
<polygon fill="none" stroke="#002060" stroke-width="3" points="369.846,-372.5 369.846,-434.5 679.846,-434.5 679.846,-372.5 369.846,-372.5"/>
<text text-anchor="start" x="478.346" y="-413.5" font-family="Times,serif" font-size="20.00" fill="white">VariantCall</text>
<text text-anchor="start" x="393.846" y="-397.5" font-family="Times,serif" font-size="15.00" fill="white">information about 1) genomic location and</text>
<text text-anchor="start" x="375.846" y="-382.5" font-family="Times,serif" font-size="15.00" fill="white">2) a particular sample&#39;s genotype at that location</text>
<polygon fill="none" stroke="#002060" points="368.346,-346 368.346,-371 506.346,-371 506.346,-346 368.346,-346"/>
<text text-anchor="start" x="373.346" y="-354.8" font-family="Times,serif" font-size="14.00" fill="white">&#45; id</text>
<polygon fill="none" stroke="#002060" points="506.346,-346 506.346,-371 681.346,-371 681.346,-346 506.346,-346"/>
<text text-anchor="start" x="511.346" y="-354.8" font-family="Times,serif" font-size="14.00" fill="white">&#45; bioSampleId</text>
<polygon fill="none" stroke="#002060" points="368.346,-321 368.346,-346 506.346,-346 506.346,-321 368.346,-321"/>
<text text-anchor="start" x="373.346" y="-329.8" font-family="Times,serif" font-size="14.00" fill="white">&#45; position</text>
<polygon fill="none" stroke="#002060" points="506.346,-321 506.346,-346 681.346,-346 681.346,-321 506.346,-321"/>
<text text-anchor="start" x="511.346" y="-329.8" font-family="Times,serif" font-size="14.00" fill="white">&#45; reference_bases</text>
<polygon fill="none" stroke="#002060" points="368.346,-296 368.346,-321 506.346,-321 506.346,-296 368.346,-296"/>
<text text-anchor="start" x="373.346" y="-304.8" font-family="Times,serif" font-size="14.00" fill="white">&#45; genotype</text>
<polygon fill="none" stroke="#002060" points="506.346,-296 506.346,-321 681.346,-321 681.346,-296 506.346,-296"/>
<text text-anchor="start" x="511.346" y="-304.8" font-family="Times,serif" font-size="14.00" fill="white">&#45; info</text>
</g>
<!-- VariantCall&#45;&gt;Position -->
<g id="edge2" class="edge"><title>VariantCall:position:w&#45;&gt;Position</title>
<path fill="none" stroke="#c55a11" stroke-width="2" d="M356.864,-327.151C353.421,-318.933 357.555,-303.669 350.346,-292 342.677,-279.586 333.434,-267.175 323.924,-255.577"/>
<polygon fill="none" stroke="#c55a11" stroke-width="2" points="356.867,-327.153 364.056,-326.583 367.346,-333 360.158,-333.569 356.867,-327.153"/>
</g>
<!-- BioSample -->
<g id="node6" class="node"><title>BioSample</title>
<polygon fill="#002060" stroke="none" points="505.846,-150.5 505.846,-237.5 640.846,-237.5 640.846,-150.5 505.846,-150.5"/>
<polygon fill="#79a6ff" stroke="none" points="506.346,-200 506.346,-237 641.346,-237 641.346,-200 506.346,-200"/>
<polygon fill="none" stroke="#002060" stroke-width="3" points="507.846,-201.5 507.846,-235.5 639.846,-235.5 639.846,-201.5 507.846,-201.5"/>
<text text-anchor="start" x="529.346" y="-213.5" font-family="Times,serif" font-size="20.00" fill="white">BioSample</text>
<polygon fill="none" stroke="#002060" points="506.346,-175 506.346,-200 592.346,-200 592.346,-175 506.346,-175"/>
<text text-anchor="start" x="511.346" y="-183.8" font-family="Times,serif" font-size="14.00" fill="white">&#45; id</text>
<polygon fill="none" stroke="#002060" points="592.346,-175 592.346,-200 641.346,-200 641.346,-175 592.346,-175"/>
<text text-anchor="start" x="597.346" y="-183.8" font-family="Times,serif" font-size="14.00" fill="white">&#45; name</text>
<polygon fill="none" stroke="#002060" points="506.346,-150 506.346,-175 592.346,-175 592.346,-150 506.346,-150"/>
<text text-anchor="start" x="511.346" y="-158.8" font-family="Times,serif" font-size="14.00" fill="white">&#45; individualId</text>
</g>
<!-- VariantCall&#45;&gt;BioSample -->
<g id="edge4" class="edge"><title>VariantCall:bioSampleId:w&#45;&gt;BioSample:id:w</title>
<path fill="none" stroke="darkgreen" stroke-width="2" stroke-dasharray="5,2" d="M506.346,-357C434.331,-357 430.047,-202.564 495.225,-188.086"/>
<polygon fill="darkgreen" stroke="darkgreen" stroke-width="2" points="505.346,-187 495.883,-192.541 500.428,-188.03 495.456,-188.564 495.403,-188.067 495.35,-187.569 500.321,-187.036 494.923,-183.592 505.346,-187 505.346,-187"/>
</g>
<!-- Feature -->
<g id="node4" class="node"><title>Feature</title>
<polygon fill="#002060" stroke="none" points="23.3461,-308.5 23.3461,-423.5 333.346,-423.5 333.346,-308.5 23.3461,-308.5"/>
<polygon fill="#79a6ff" stroke="none" points="23.3461,-358 23.3461,-423 333.346,-423 333.346,-358 23.3461,-358"/>
<polygon fill="none" stroke="#002060" stroke-width="3" points="24.8461,-359.5 24.8461,-421.5 331.846,-421.5 331.846,-359.5 24.8461,-359.5"/>
<text text-anchor="start" x="147.846" y="-400.5" font-family="Times,serif" font-size="20.00" fill="white">Feature</text>
<text text-anchor="start" x="30.8461" y="-384.5" font-family="Times,serif" font-size="15.00" fill="white">Annotation of a contiguous region of a sequence</text>
<text text-anchor="start" x="51.8461" y="-369.5" font-family="Times,serif" font-size="15.00" fill="white"> An example might be a gene or a protein</text>
<polygon fill="none" stroke="#002060" points="23.3461,-333 23.3461,-358 186.346,-358 186.346,-333 23.3461,-333"/>
<text text-anchor="start" x="28.3461" y="-341.8" font-family="Times,serif" font-size="14.00" fill="white">&#45; id</text>
<polygon fill="none" stroke="#002060" points="186.346,-333 186.346,-358 333.346,-358 333.346,-333 186.346,-333"/>
<text text-anchor="start" x="191.346" y="-341.8" font-family="Times,serif" font-size="14.00" fill="white">&#45; position</text>
<polygon fill="none" stroke="#002060" points="23.3461,-308 23.3461,-333 186.346,-333 186.346,-308 23.3461,-308"/>
<text text-anchor="start" x="28.3461" y="-316.8" font-family="Times,serif" font-size="14.00" fill="white">&#45; featureType</text>
<polygon fill="none" stroke="#002060" points="186.346,-308 186.346,-333 333.346,-333 333.346,-308 186.346,-308"/>
<text text-anchor="start" x="191.346" y="-316.8" font-family="Times,serif" font-size="14.00" fill="white">&#45; attributes</text>
</g>
<!-- Feature&#45;&gt;Position -->
<g id="edge3" class="edge"><title>Feature:position:w&#45;&gt;Position</title>
<path fill="none" stroke="#c55a11" stroke-width="2" d="M174.374,-342.143C151.296,-333.031 178.75,-292.021 209.529,-255.604"/>
<polygon fill="none" stroke="#c55a11" stroke-width="2" points="174.488,-342.161 181.03,-339.128 186.346,-344 179.804,-347.033 174.488,-342.161"/>
</g>
<!-- VariantCallEffect -->
<g id="node5" class="node"><title>VariantCallEffect</title>
<polygon fill="#002060" stroke="none" points="115.346,-480.5 115.346,-595.5 323.346,-595.5 323.346,-480.5 115.346,-480.5"/>
<polygon fill="#79a6ff" stroke="none" points="115.346,-530 115.346,-595 323.346,-595 323.346,-530 115.346,-530"/>
<polygon fill="none" stroke="#002060" stroke-width="3" points="116.846,-531.5 116.846,-593.5 321.846,-593.5 321.846,-531.5 116.846,-531.5"/>
<text text-anchor="start" x="148.346" y="-572.5" font-family="Times,serif" font-size="20.00" fill="white">VariantCallEffect</text>
<text text-anchor="start" x="122.846" y="-556.5" font-family="Times,serif" font-size="15.00" fill="white">How does a particular mutation</text>
<text text-anchor="start" x="137.846" y="-541.5" font-family="Times,serif" font-size="15.00" fill="white">affect a transcript/protein?</text>
<polygon fill="none" stroke="#002060" points="115.346,-505 115.346,-530 195.346,-530 195.346,-505 115.346,-505"/>
<text text-anchor="start" x="120.346" y="-513.8" font-family="Times,serif" font-size="14.00" fill="white">&#45; id</text>
<polygon fill="none" stroke="#002060" points="195.346,-505 195.346,-530 323.346,-530 323.346,-505 195.346,-505"/>
<text text-anchor="start" x="200.346" y="-513.8" font-family="Times,serif" font-size="14.00" fill="white">&#45; variantCallId</text>
<polygon fill="none" stroke="#002060" points="115.346,-480 115.346,-505 195.346,-505 195.346,-480 115.346,-480"/>
<text text-anchor="start" x="120.346" y="-488.8" font-family="Times,serif" font-size="14.00" fill="white">&#45; info</text>
<polygon fill="none" stroke="#002060" points="195.346,-480 195.346,-505 323.346,-505 323.346,-480 195.346,-480"/>
<text text-anchor="start" x="200.346" y="-488.8" font-family="Times,serif" font-size="14.00" fill="white">&#45; featureIds</text>
</g>
<!-- VariantCallEffect&#45;&gt;VariantCall -->
<g id="edge5" class="edge"><title>VariantCallEffect:variantCallId:w&#45;&gt;VariantCall:id:w</title>
<path fill="none" stroke="darkgreen" stroke-width="2" stroke-dasharray="5,2" d="M195.346,-516C118.622,-516 303.325,-500.627 350.346,-440 370.483,-414.036 339.308,-370.007 357.332,-360.045"/>
<polygon fill="darkgreen" stroke="darkgreen" stroke-width="2" points="367.346,-358 358.449,-364.41 362.547,-359.49 357.648,-360.491 357.548,-360.001 357.448,-359.511 362.347,-358.51 356.648,-355.592 367.346,-358 367.346,-358"/>
</g>
<!-- VariantCallEffect&#45;&gt;Feature -->
<g id="edge7" class="edge"><title>VariantCallEffect:featureIds:w&#45;&gt;Feature:id:w</title>
<path fill="none" stroke="darkgreen" stroke-width="2" stroke-dasharray="5,2" d="M195.346,-491C113.935,-491 70.3748,-494.453 23.3461,-428 4.28267,-401.063 -10.9954,-355.902 12.4006,-346.676"/>
<polygon fill="darkgreen" stroke="darkgreen" stroke-width="2" points="22.3461,-345 13.2331,-351.099 17.4988,-346.324 12.5683,-347.155 12.4852,-346.662 12.4021,-346.169 17.3326,-345.338 11.7373,-342.225 22.3461,-345 22.3461,-345"/>
</g>
<!-- Individual -->
<g id="node7" class="node"><title>Individual</title>
<polygon fill="#002060" stroke="none" points="505.846,-4.5 505.846,-91.5 642.846,-91.5 642.846,-4.5 505.846,-4.5"/>
<polygon fill="#79a6ff" stroke="none" points="506.346,-54 506.346,-91 643.346,-91 643.346,-54 506.346,-54"/>
<polygon fill="none" stroke="#002060" stroke-width="3" points="507.846,-55.5 507.846,-89.5 641.846,-89.5 641.846,-55.5 507.846,-55.5"/>
<text text-anchor="start" x="534.346" y="-67.5" font-family="Times,serif" font-size="20.00" fill="white">Individual</text>
<polygon fill="none" stroke="#002060" points="506.346,-29 506.346,-54 594.346,-54 594.346,-29 506.346,-29"/>
<text text-anchor="start" x="511.346" y="-37.8" font-family="Times,serif" font-size="14.00" fill="white">&#45; id</text>
<polygon fill="none" stroke="#002060" points="594.346,-29 594.346,-54 643.346,-54 643.346,-29 594.346,-29"/>
<text text-anchor="start" x="599.346" y="-37.8" font-family="Times,serif" font-size="14.00" fill="white">&#45; name</text>
<polygon fill="none" stroke="#002060" points="506.346,-4 506.346,-29 594.346,-29 594.346,-4 506.346,-4"/>
<text text-anchor="start" x="511.346" y="-12.8" font-family="Times,serif" font-size="14.00" fill="white">&#45; observations</text>
</g>
<!-- BioSample&#45;&gt;Individual -->
<g id="edge6" class="edge"><title>BioSample:individualId:w&#45;&gt;Individual:id:w</title>
<path fill="none" stroke="darkgreen" stroke-width="2" stroke-dasharray="5,2" d="M505.346,-162C455.14,-162 451.806,-56.5367 495.344,-42.5299"/>
<polygon fill="darkgreen" stroke="darkgreen" stroke-width="2" points="505.346,-41 496.142,-46.9603 500.479,-42.2503 495.537,-43.0063 495.461,-42.5121 495.385,-42.0178 500.328,-41.2618 494.781,-38.0638 505.346,-41 505.346,-41"/>
</g>
</g>
</svg>
